<svg width="20" height="20" viewBox="0 0 20 20" fill="none" xmlns="http://www.w3.org/2000/svg">
<path fill-rule="evenodd" clip-rule="evenodd" d="M10.625 18.9997L11.3441 19.7057C11.2497 19.799 11.1376 19.873 11.0141 19.9235C10.8906 19.974 10.7582 20 10.6245 20C10.4908 20 10.3584 19.974 10.2349 19.9235C10.1114 19.873 9.99928 19.799 9.90492 19.7057L9.89883 19.6987L9.88156 19.6817L9.81859 19.6187C9.46061 19.2556 9.10848 18.8869 8.76234 18.5127C7.8937 17.5749 7.06164 16.6049 6.26797 15.6048C5.36203 14.4548 4.43578 13.1548 3.73195 11.8708C3.04336 10.6118 2.5 9.24787 2.5 7.99988C2.5 3.46095 6.14812 0 10.625 0C15.1019 0 18.75 3.46095 18.75 7.99988C18.75 9.24787 18.2066 10.6118 17.518 11.8698C16.8142 13.1558 15.889 14.4548 14.982 15.6048C13.8717 17.0039 12.6865 18.3438 11.4314 19.6187L11.3684 19.6817L11.3512 19.6987L11.3451 19.7047L10.625 18.9997ZM10.625 10.9998C11.4331 10.9998 12.2081 10.6838 12.7795 10.1212C13.3509 9.55857 13.6719 8.79552 13.6719 7.99988C13.6719 7.20425 13.3509 6.4412 12.7795 5.87859C12.2081 5.31599 11.4331 4.99993 10.625 4.99993C9.81692 4.99993 9.04193 5.31599 8.47053 5.87859C7.89913 6.4412 7.57812 7.20425 7.57812 7.99988C7.57812 8.79552 7.89913 9.55857 8.47053 10.1212C9.04193 10.6838 9.81692 10.9998 10.625 10.9998Z" fill="#C4C4C4"/>
</svg>
