<svg width="20" height="20" viewBox="0 0 20 20" fill="none" xmlns="http://www.w3.org/2000/svg">
<path fill-rule="evenodd" clip-rule="evenodd" d="M1 7.74295C1 7.29209 1.17911 6.85969 1.49792 6.54088C1.81673 6.22207 2.24913 6.04297 2.7 6.04297H16.3C16.7509 6.04297 17.1833 6.22207 17.5021 6.54088C17.8209 6.85969 18 7.29209 18 7.74295V17.0929C18 17.5437 17.8209 17.9761 17.5021 18.2949C17.1833 18.6137 16.7509 18.7929 16.3 18.7929H2.7C2.24913 18.7929 1.81673 18.6137 1.49792 18.2949C1.17911 17.9761 1 17.5437 1 17.0929V7.74295ZM16.3 7.74295H2.7V17.0929H16.3V7.74295Z" fill="#6137DD"/>
<path fill-rule="evenodd" clip-rule="evenodd" d="M5.88772 9.8685C5.88772 9.69943 5.95489 9.53728 6.07444 9.41772C6.19399 9.29817 6.35615 9.23101 6.52522 9.23101H12.4752C12.6443 9.23101 12.8064 9.29817 12.926 9.41772C13.0456 9.53728 13.1127 9.69943 13.1127 9.8685C13.1127 10.0376 13.0456 10.1997 12.926 10.3193C12.8064 10.4388 12.6443 10.506 12.4752 10.506H6.52522C6.35615 10.506 6.19399 10.4388 6.07444 10.3193C5.95489 10.1997 5.88772 10.0376 5.88772 9.8685ZM5.03772 12.4185C5.03772 12.2494 5.10489 12.0873 5.22444 11.9677C5.34399 11.8481 5.50615 11.781 5.67522 11.781H13.3252C13.4943 11.781 13.6564 11.8481 13.776 11.9677C13.8956 12.0873 13.9627 12.2494 13.9627 12.4185C13.9627 12.5876 13.8956 12.7497 13.776 12.8693C13.6564 12.9888 13.4943 13.056 13.3252 13.056H5.67522C5.50615 13.056 5.34399 12.9888 5.22444 12.8693C5.10489 12.7497 5.03772 12.5876 5.03772 12.4185ZM5.88772 14.9685C5.88772 14.7994 5.95489 14.6372 6.07444 14.5177C6.19399 14.3981 6.35615 14.331 6.52522 14.331H12.4752C12.6443 14.331 12.8064 14.3981 12.926 14.5177C13.0456 14.6372 13.1127 14.7994 13.1127 14.9685C13.1127 15.1375 13.0456 15.2997 12.926 15.4192C12.8064 15.5388 12.6443 15.6059 12.4752 15.6059H6.52522C6.35615 15.6059 6.19399 15.5388 6.07444 15.4192C5.95489 15.2997 5.88772 15.1375 5.88772 14.9685ZM10.7021 4.19735C10.3833 3.87866 9.951 3.69962 9.50022 3.69962C9.04944 3.69962 8.61712 3.87866 8.29832 4.19735L5.00117 7.49532C4.9222 7.57424 4.82845 7.63683 4.72529 7.67952C4.62213 7.72221 4.51157 7.74416 4.39992 7.74412C4.28827 7.74408 4.17773 7.72205 4.0746 7.67929C3.97146 7.63653 3.87776 7.57387 3.79885 7.4949C3.71993 7.41593 3.65734 7.32218 3.61465 7.21902C3.57196 7.11586 3.55001 7.0053 3.55005 6.89365C3.55009 6.78201 3.57212 6.67146 3.61488 6.56833C3.65764 6.4652 3.7203 6.3715 3.79927 6.29258L7.09642 2.99546C7.73401 2.35807 8.59866 2 9.50022 2C10.4018 2 11.2664 2.35807 11.904 2.99546L15.202 6.29258C15.3614 6.45208 15.4509 6.66835 15.4508 6.89383C15.4507 7.11931 15.3611 7.33552 15.2016 7.4949C15.0421 7.65428 14.8258 7.74377 14.6003 7.74369C14.3749 7.74361 14.1587 7.65397 13.9993 7.49447L10.7021 4.19735Z" fill="#6137DD"/>
</svg>
