<svg width="21" height="21" viewBox="0 0 21 21" fill="none" xmlns="http://www.w3.org/2000/svg">
<path d="M20.25 19.2302V8.43651C20.25 8.23937 20.2048 8.04494 20.118 7.86862C20.0312 7.69229 19.9052 7.53892 19.75 7.42063L11 0.753968C10.7836 0.589115 10.5205 0.5 10.25 0.5C9.97954 0.5 9.71637 0.589115 9.5 0.753968L0.75 7.42063C0.594755 7.53892 0.468751 7.69229 0.381966 7.86862C0.295181 8.04494 0.25 8.23937 0.25 8.43651V19.2302C0.25 19.5669 0.381696 19.8899 0.616117 20.1281C0.850537 20.3662 1.16848 20.5 1.5 20.5H6.5C6.83152 20.5 7.14946 20.3662 7.38388 20.1281C7.6183 19.8899 7.75 19.5669 7.75 19.2302V15.4206C7.75 15.0839 7.8817 14.7609 8.11612 14.5227C8.35054 14.2846 8.66848 14.1508 9 14.1508H11.5C11.8315 14.1508 12.1495 14.2846 12.3839 14.5227C12.6183 14.7609 12.75 15.0839 12.75 15.4206V19.2302C12.75 19.5669 12.8817 19.8899 13.1161 20.1281C13.3505 20.3662 13.6685 20.5 14 20.5H19C19.3315 20.5 19.6495 20.3662 19.8839 20.1281C20.1183 19.8899 20.25 19.5669 20.25 19.2302Z" fill="#C4C4C4"/>
</svg>
