<svg width="85" height="28" viewBox="0 0 85 28" fill="none" xmlns="http://www.w3.org/2000/svg">
<g clip-path="url(#clip0_382_3627)">
<path d="M10.3841 4.16699H3.98257L0 22.8996H12.3901L12.8917 20.4208H6.90303L10.3841 4.16699Z" fill="#262626"/>
<path d="M17.4957 7.49483C18.0267 7.86833 18.6851 8.05543 19.4722 8.05543C19.8851 8.05543 20.2881 7.99634 20.682 7.87818C21.0752 7.76001 21.4241 7.58346 21.7294 7.34712C22.0339 7.11078 22.2794 6.82591 22.4665 6.4918C22.6529 6.15769 22.7464 5.7645 22.7464 5.31152C22.7464 4.52513 22.4813 3.94484 21.9502 3.57134C21.4192 3.19784 20.7699 3.01074 20.0032 3.01074C19.5707 3.01074 19.1521 3.06983 18.7498 3.188C18.3468 3.30616 17.9923 3.47849 17.6877 3.70428C17.3824 3.93077 17.1419 4.21564 16.9646 4.5596C16.7874 4.90426 16.6987 5.29253 16.6987 5.72511C16.6987 6.53189 16.9646 7.12204 17.495 7.49483H17.4957Z" fill="#262626"/>
<path d="M34.4106 9.85678L33.0833 11.7742H32.9061C32.7485 11.3022 32.5326 10.9189 32.2568 10.6235C31.9811 10.3287 31.6667 10.103 31.3129 9.9447C30.9591 9.78785 30.5947 9.67952 30.2212 9.62044C29.8478 9.56135 29.5031 9.53181 29.1887 9.53181C28.166 9.53181 27.2959 9.71891 26.5777 10.0924C25.8596 10.4659 25.2596 10.9386 24.7784 11.5083C24.2966 12.0788 23.9126 12.7132 23.6277 13.411C23.3421 14.1094 23.1262 14.7931 22.9785 15.4614C22.8308 16.1303 22.7372 16.7303 22.6985 17.2606C22.6591 17.7917 22.6394 18.1856 22.6394 18.4409C22.6394 18.9129 22.6845 19.3567 22.7724 19.7724C22.0099 20.2866 20.5441 20.8092 20.2564 20.6896C19.9778 20.5736 19.8287 20.3457 19.8287 19.9518C19.8287 19.7555 19.8583 19.4798 19.9173 19.126C19.9764 18.7722 20.0545 18.3692 20.1537 17.9162L22.3532 8.85938L16.221 8.94519L14.106 18.0343C14.0075 18.4669 13.9435 18.8601 13.9139 19.2146C13.8844 19.5684 13.8696 19.8639 13.8696 20.0995C13.8696 20.7684 13.9829 21.2995 14.2087 21.6927C14.4344 22.0866 14.7348 22.3862 15.1083 22.5923C15.4818 22.7991 15.9045 22.9362 16.3765 23.0052C16.8485 23.0741 17.3303 23.1086 17.822 23.1086C18.097 23.1086 18.4163 23.1036 18.7807 23.0938C19.1443 23.084 19.4573 23.0544 19.7971 22.9911C20.1755 22.9208 20.6193 22.7027 20.7283 22.6359C21.5647 22.1245 22.6036 21.2066 23.0931 20.7417C23.205 20.9724 23.3386 21.1841 23.4941 21.3761C23.7888 21.7405 24.177 22.0254 24.6596 22.2315C25.1414 22.4382 25.7259 22.5409 26.4145 22.5409C27.0237 22.5409 27.5695 22.4671 28.052 22.3194C28.5338 22.1717 28.9516 21.9853 29.3054 21.7588C29.6592 21.533 29.949 21.2966 30.1755 21.0505C30.4013 20.805 30.5736 20.5933 30.6918 20.416H30.8986L30.5448 22.3334C30.4463 22.9039 30.3134 23.385 30.1467 23.7789C29.9793 24.1721 29.7633 24.4872 29.4975 24.7228C29.2323 24.9592 28.8975 25.1308 28.4944 25.2391C28.0914 25.3467 27.5948 25.4016 27.0047 25.4016C26.5327 25.4016 25.9672 25.3967 25.3081 25.3868C24.649 25.377 24.0047 25.3228 23.3759 25.2244L22.8153 27.3486C23.0516 27.3676 23.3653 27.388 23.7592 27.4077C24.1524 27.4267 24.5653 27.4414 24.9979 27.452C25.4305 27.4618 25.8532 27.471 26.2661 27.4815C26.679 27.4914 27.0328 27.4963 27.3282 27.4963C28.9214 27.4963 30.2733 27.3387 31.3846 27.0243C32.4953 26.7092 33.4202 26.2766 34.1574 25.7266C34.8952 25.1758 35.4699 24.5266 35.8835 23.7796C36.2964 23.0319 36.5918 22.216 36.7684 21.3311L39.1873 9.85537H34.4085L34.4106 9.85678ZM31.3136 18.5598C31.2545 18.6386 31.161 18.7469 31.0337 18.884C30.9056 19.0219 30.7579 19.1548 30.5912 19.2822C30.4238 19.4102 30.2466 19.5234 30.0602 19.6212C29.8731 19.7197 29.681 19.7689 29.4848 19.7689C29.15 19.7689 28.9193 19.636 28.7913 19.3708C28.6632 19.1056 28.5992 18.7764 28.5992 18.3825C28.5992 18.0681 28.6436 17.5814 28.7322 16.9223C28.8208 16.2632 28.9629 15.5999 29.1598 14.931C29.3561 14.2628 29.6121 13.6776 29.9265 13.1761C30.2409 12.6745 30.6348 12.4241 31.1068 12.4241C31.4015 12.4241 31.6526 12.5325 31.8587 12.7484C32.0655 12.965 32.247 13.181 32.4046 13.3976L31.3129 18.5598H31.3136Z" fill="#262626"/>
<path d="M60.9464 17.544L62.1562 11.7917H64.4866L64.8699 9.81522H62.5691L63.4244 5.86219H60.3858C59.8941 6.49172 59.4369 7.02277 59.0142 7.45536C58.5908 7.88794 58.1483 8.25159 57.6869 8.54701C57.2248 8.84173 56.7205 9.09565 56.1676 9.28416C55.3039 9.57888 52.6746 9.75051 51.4387 9.68861C51.2334 9.66399 51.0202 9.65063 50.798 9.65063C50.0896 9.65063 49.451 9.75895 48.8805 9.97489C48.3101 10.1915 47.8184 10.437 47.4055 10.712C46.9139 11.0272 46.4806 11.3711 46.1078 11.7446H45.901L47.8184 2.71735L41.9937 0.500977L37.582 22.5423H43.6002L45.5472 13.3976C45.7244 13.2013 45.9748 12.9748 46.2998 12.7188C46.6241 12.4635 46.9638 12.3355 47.3176 12.3355C47.6123 12.3355 47.8339 12.429 47.9816 12.6154C48.1293 12.8025 48.2032 13.0431 48.2032 13.3385C48.2032 13.5551 48.1736 13.7957 48.1145 14.0616C48.0555 14.3267 48.0062 14.5877 47.9668 14.843L46.3441 22.5423H52.3327L53.5714 16.79C53.6305 16.4756 53.7043 16.126 53.793 15.7427C53.8816 15.3593 53.9646 14.976 54.0434 14.5919C54.1215 14.2086 54.1911 13.8449 54.2502 13.5003C54.3093 13.1563 54.3388 12.8468 54.3388 12.5711C54.3388 12.2954 54.3071 12.033 54.2438 11.791H56.1388L54.9001 17.6615C54.8016 18.0941 54.7376 18.4873 54.7081 18.8418C54.6785 19.1963 54.6638 19.491 54.6638 19.7266C54.6638 20.3956 54.777 20.9266 55.0028 21.3198C55.2286 21.7137 55.5289 22.0133 55.9024 22.2194C56.2759 22.4262 56.6987 22.5634 57.1706 22.6323C57.6426 22.7013 58.1244 22.7357 58.6161 22.7357C58.8911 22.7357 59.2105 22.7308 59.5748 22.7209C59.9385 22.7111 60.3035 22.6724 60.6433 22.6091C61.0217 22.5388 61.45 22.3271 61.5591 22.2602C62.695 21.566 64.1693 20.1226 64.1679 20.0825C64.1679 20.0811 64.1651 20.0811 64.1644 20.0797L63.6995 19.3039C62.9905 19.8469 61.3551 20.4441 61.0491 20.3175C60.7706 20.2014 60.6214 19.9735 60.6214 19.5796C60.6214 19.3834 60.651 19.1077 60.7101 18.7539C60.7692 18.4 60.8472 17.997 60.9464 17.544Z" fill="#262626"/>
<path d="M65.6379 15.7723C66.0255 15.4487 66.4588 15.2279 66.9406 15.1104C67.4217 14.9936 67.9345 14.9662 68.4789 15.0288C69.0233 15.0914 69.5558 15.2328 70.0756 15.4522C70.6749 15.7055 71.1722 16.029 71.5717 16.4215L76.1163 5.49369C75.8019 5.46344 75.4839 5.44727 75.1618 5.44727C69.7288 5.44727 65.3242 9.85187 65.3242 15.2848C65.3242 15.5402 65.3341 15.7934 65.3531 16.0438C65.4424 15.9467 65.5373 15.8553 65.6379 15.7709V15.7723Z" fill="#262626"/>
<path d="M80.1993 17.8575L83.3618 9.8509C82.4066 8.41318 81.0842 7.24134 79.5283 6.46973L80.1993 17.8583V17.8575Z" fill="#262626"/>
<path d="M80.0559 23.8216C83.0101 22.1244 85 18.9373 85 15.2853C85 14.1536 84.808 13.0669 84.4563 12.0547L80.0552 23.8216H80.0559Z" fill="#262626"/>
<path d="M75.4792 11.2793L72.3794 19.1143C72.3351 19.2768 72.2774 19.4421 72.2063 19.6116C71.9763 20.1553 71.6647 20.5809 71.2708 20.8876C70.8762 21.1949 70.4359 21.4123 69.9499 21.5417C69.4631 21.6704 68.9539 21.7063 68.4214 21.6486C68.1112 21.6149 67.8081 21.5551 67.5112 21.47C69.3147 23.699 72.072 25.124 75.162 25.124C75.494 25.124 75.8217 25.1072 76.1453 25.0755L75.4785 11.2793H75.4792Z" fill="#262626"/>
</g>
<defs>
<clipPath id="clip0_382_3627">
<rect width="85" height="26.9974" fill="white" transform="translate(0 0.500977)"/>
</clipPath>
</defs>
</svg>
