<svg width="22" height="25" viewBox="0 0 22 25" fill="none" xmlns="http://www.w3.org/2000/svg">
<path d="M10.75 13.75C14.2018 13.75 17 10.9518 17 7.5C17 4.04822 14.2018 1.25 10.75 1.25C7.29822 1.25 4.5 4.04822 4.5 7.5C4.5 10.9518 7.29822 13.75 10.75 13.75Z" fill="#D2D2D2" stroke="#D2D2D2" stroke-linecap="round" stroke-linejoin="round"/>
<path d="M20.75 23.75C20.75 21.0978 19.6964 18.5543 17.8211 16.6789C15.9457 14.8036 13.4022 13.75 10.75 13.75C8.09784 13.75 5.5543 14.8036 3.67893 16.6789C1.80357 18.5543 0.75 21.0978 0.75 23.75" stroke="#D2D2D2" stroke-linecap="round" stroke-linejoin="round"/>
<path d="M10.75 13.75C8.09784 13.75 5.5543 14.8036 3.67893 16.6789C1.80357 18.5543 0.75 21.0978 0.75 23.75H20.75C20.75 21.0978 19.6964 18.5543 17.8211 16.6789C15.9457 14.8036 13.4022 13.75 10.75 13.75Z" fill="#D2D2D2" stroke="#D2D2D2" stroke-linecap="round" stroke-linejoin="round"/>
</svg>
