<svg width="17" height="17" viewBox="0 0 17 17" fill="none" xmlns="http://www.w3.org/2000/svg">
<path d="M14.0333 9.45435C13.8654 9.402 13.6835 9.41817 13.5274 9.49934C13.3713 9.58051 13.2536 9.7201 13.2 9.88768C12.885 10.8507 12.271 11.688 11.4473 12.278C10.6236 12.8679 9.63311 13.1796 8.62 13.1677C7.3669 13.1819 6.15929 12.6987 5.26198 11.8238C4.36467 10.949 3.8509 9.75407 3.83333 8.50102C3.8509 7.24796 4.36467 6.053 5.26198 5.17819C6.15929 4.30338 7.3669 3.8201 8.62 3.83435C9.75172 3.83162 10.8486 4.22555 11.72 4.94768L10.2733 4.70768C10.1866 4.69342 10.098 4.69643 10.0124 4.71655C9.9269 4.73667 9.84619 4.7735 9.77494 4.82493C9.70369 4.87635 9.64331 4.94135 9.59727 5.01619C9.55123 5.09103 9.52044 5.17423 9.50667 5.26102C9.4924 5.34772 9.49542 5.43638 9.51554 5.52192C9.53566 5.60745 9.57249 5.68816 9.62391 5.75941C9.67533 5.83066 9.74033 5.89104 9.81518 5.93708C9.89002 5.98312 9.97322 6.01391 10.06 6.02768L12.8867 6.49435H13C13.0773 6.49426 13.154 6.48072 13.2267 6.45435C13.2513 6.4455 13.2739 6.43191 13.2933 6.41435C13.3411 6.3964 13.386 6.37171 13.4267 6.34102L13.4867 6.26768C13.4867 6.23435 13.5467 6.20768 13.5733 6.16768C13.6 6.12768 13.5733 6.10101 13.6067 6.07435C13.6252 6.03556 13.6408 5.99545 13.6533 5.95435L14.1533 3.28768C14.17 3.20013 14.1692 3.11017 14.1511 3.02292C14.1329 2.93567 14.0978 2.85285 14.0476 2.77918C13.9975 2.70551 13.9333 2.64244 13.8588 2.59357C13.7843 2.5447 13.7009 2.51098 13.6133 2.49435C13.5258 2.47771 13.4358 2.47849 13.3486 2.49662C13.2613 2.51476 13.1785 2.5499 13.1048 2.60004C12.9561 2.70131 12.8536 2.85754 12.82 3.03435L12.64 4.00102C11.5243 3.03332 10.0969 2.5007 8.62 2.50102C7.01329 2.48679 5.46656 3.11055 4.3192 4.2354C3.17185 5.36026 2.51759 6.89434 2.5 8.50102C2.51759 10.1077 3.17185 11.6418 4.3192 12.7666C5.46656 13.8915 7.01329 14.5152 8.62 14.501C9.92209 14.521 11.1962 14.1224 12.2548 13.3639C13.3133 12.6054 14.1003 11.5271 14.5 10.2877C14.5253 10.2023 14.5332 10.1128 14.5233 10.0243C14.5135 9.93583 14.486 9.85024 14.4425 9.77257C14.399 9.69489 14.3404 9.62672 14.2701 9.57207C14.1998 9.51741 14.1193 9.47739 14.0333 9.45435Z" fill="white"/>
</svg>
