<svg width="38" height="38" viewBox="0 0 38 38" fill="none" xmlns="http://www.w3.org/2000/svg">
<g clip-path="url(#clip0_825_2192)">
<path d="M37.9945 9.69831C37.9945 8.52981 37.896 7.36606 37.6169 6.22844C37.1158 4.15625 35.9342 2.57331 34.166 1.41075C33.2564 0.817 32.2554 0.452437 31.1914 0.260062C30.3742 0.117335 29.5472 0.0387205 28.7178 0.0249375C28.656 0.019 28.5884 0.0059375 28.5195 0H9.48267C9.24121 0.0182083 9.00014 0.0324583 8.75948 0.04275C7.57791 0.110437 6.40348 0.233938 5.2896 0.67925C3.17466 1.51406 1.64635 2.9735 0.755727 5.07656C0.446977 5.78787 0.291414 6.54194 0.180977 7.30906C0.0883516 7.92775 0.0384766 8.55237 0.0206641 9.177C0.0206641 9.22687 0.00878906 9.27556 0.00878906 9.32544V28.6781L0.0456016 29.3467C0.126352 30.6399 0.292602 31.92 0.837664 33.1075C1.86485 35.3531 3.59029 36.8303 5.95935 37.5416C6.62079 37.7459 7.31429 37.8385 8.0066 37.9002C8.88535 37.9869 9.76292 37.9988 10.6417 37.9988H28.1074C28.9363 37.9972 29.7652 37.9438 30.594 37.8385C31.8991 37.6711 33.1234 37.2875 34.2314 36.5584C35.5428 35.7088 36.5769 34.4939 37.206 33.0636C37.5029 32.395 37.6704 31.6849 37.7939 30.9664C37.9732 29.8965 38.01 28.8135 38.01 27.7317C38.004 21.7194 38.01 15.7082 38.004 9.69594L37.9945 9.69831ZM27.826 16.0122V25.0551C27.826 25.7165 27.7334 26.3661 27.4365 26.9657C26.9793 27.8991 26.2371 28.4869 25.2408 28.7719C24.689 28.9305 24.12 29.0218 23.5462 29.0439C22.8248 29.0865 22.1128 28.8624 21.5459 28.4142C20.979 27.9659 20.5967 27.3249 20.4718 26.6131C20.3569 25.9726 20.4557 25.3121 20.7528 24.7333C21.05 24.1544 21.5291 23.6892 22.1165 23.4092C22.6235 23.1622 23.1745 23.0137 23.7244 22.9021C24.324 22.7727 24.9237 22.6551 25.5175 22.5186C25.9569 22.42 26.2407 22.154 26.3274 21.7016C26.3523 21.603 26.3582 21.4973 26.3582 21.3987V12.7775C26.3561 12.6791 26.3417 12.5814 26.3155 12.4866C26.2537 12.2455 26.0804 12.103 25.8334 12.1149C25.5792 12.1267 25.3322 12.1707 25.0852 12.2206C23.8779 12.4557 22.6738 12.6967 21.4729 12.9437L15.6161 14.1253C15.5912 14.1312 15.5603 14.1443 15.5354 14.1443C15.096 14.2678 14.9416 14.4661 14.9226 14.9233C14.9167 14.991 14.9226 15.0599 14.9226 15.1276C14.9167 19.247 14.9226 23.3664 14.9167 27.4847C14.9167 28.1532 14.8419 28.8087 14.577 29.4262C14.1377 30.4404 13.3587 31.0781 12.3077 31.3809C11.7522 31.5429 11.1785 31.6343 10.6001 31.6528C9.08485 31.7086 7.82254 30.7004 7.56366 29.2101C7.34042 27.9241 7.92823 26.5382 9.38767 25.9196C9.95648 25.6844 10.5443 25.555 11.144 25.4315L12.5049 25.1536C13.1105 25.0242 13.4264 24.6406 13.4572 24.0219V9.72206C13.4588 9.52335 13.4814 9.32742 13.5249 9.13425C13.6365 8.683 13.9584 8.42294 14.3906 8.31725C14.7932 8.21156 15.2076 8.13794 15.6149 8.05125C16.7775 7.81612 17.9341 7.581 19.0967 7.35181L22.69 6.6215C23.754 6.41131 24.8109 6.19519 25.8749 5.985C26.2217 5.91731 26.5744 5.8425 26.9259 5.81756C27.4139 5.77481 27.7547 6.08356 27.8046 6.57875C27.8165 6.69671 27.8228 6.81427 27.8236 6.93144V16.0051L27.826 16.0122Z" fill="#6137DD"/>
</g>
<defs>
<clipPath id="clip0_825_2192">
<rect width="38" height="38" fill="white"/>
</clipPath>
</defs>
</svg>
