<svg width="9" height="12" viewBox="0 0 9 12" fill="none" xmlns="http://www.w3.org/2000/svg">
<path fill-rule="evenodd" clip-rule="evenodd" d="M4.89825 11.3381C4.84599 11.3894 4.78388 11.4302 4.71549 11.4579C4.6471 11.4857 4.57377 11.5 4.49972 11.5C4.42566 11.5 4.35234 11.4857 4.28395 11.4579C4.21556 11.4302 4.15345 11.3894 4.10119 11.3381L4.09781 11.3343L4.08825 11.3249L4.05338 11.2903C3.85511 11.0906 3.66008 10.8878 3.46838 10.682C2.98728 10.1662 2.52645 9.6327 2.08687 9.08262C1.58512 8.45013 1.07212 7.73515 0.682312 7.02896C0.300937 6.33652 0 5.58633 0 4.89994C0 2.40352 2.0205 0.5 4.5 0.5C6.9795 0.5 9 2.40352 9 4.89994C9 5.58633 8.69906 6.33652 8.31769 7.02841C7.92788 7.73569 7.41544 8.45013 6.91313 9.08262C6.29818 9.85213 5.64175 10.5891 4.94663 11.2903L4.91175 11.3249L4.90219 11.3343L4.89825 11.3381ZM4.5 6.54991C4.94755 6.54991 5.37678 6.37608 5.69324 6.06665C6.00971 5.75722 6.1875 5.33754 6.1875 4.89994C6.1875 4.46234 6.00971 4.04266 5.69324 3.73323C5.37678 3.4238 4.94755 3.24996 4.5 3.24996C4.05245 3.24996 3.62322 3.4238 3.30676 3.73323C2.99029 4.04266 2.8125 4.46234 2.8125 4.89994C2.8125 5.33754 2.99029 5.75722 3.30676 6.06665C3.62322 6.37608 4.05245 6.54991 4.5 6.54991Z" fill="#C4C4C4"/>
</svg>
