<svg width="17" height="19" viewBox="0 0 17 19" fill="none" xmlns="http://www.w3.org/2000/svg">
<path d="M12.1416 0.61721C12.6663 0.31441 13.2655 0.164835 13.871 0.185475C14.4765 0.206114 15.064 0.396141 15.5669 0.73397C16.0699 1.0718 16.468 1.54389 16.716 2.09663C16.9641 2.64936 17.0522 3.26058 16.9703 3.86087C16.8884 4.46115 16.6398 5.02644 16.2527 5.49253C15.8657 5.95861 15.3557 6.30682 14.7806 6.49758C14.2056 6.68835 13.5886 6.71404 12.9997 6.57173C12.4108 6.42942 11.8736 6.12482 11.4492 5.69252L6.36332 8.62902C6.44269 8.91679 6.48183 9.20617 6.48075 9.49717C6.48075 9.7871 6.44269 10.0795 6.36332 10.3653L11.4492 13.3018C12.0022 12.741 12.7405 12.4008 13.5261 12.3447C14.3117 12.2886 15.0908 12.5205 15.7179 12.9971C16.345 13.4736 16.7771 14.1622 16.9334 14.9341C17.0897 15.7061 16.9596 16.5085 16.5674 17.1915C16.1739 17.8757 15.5441 18.3926 14.7964 18.6453C14.0486 18.8979 13.2344 18.8689 12.5065 18.5637C11.7787 18.2584 11.1873 17.6979 10.8435 16.9875C10.4997 16.277 10.4271 15.4655 10.6393 14.7053L5.55348 11.768C5.1026 12.2271 4.52523 12.5417 3.89495 12.6715C3.26467 12.8014 2.61 12.7406 2.01435 12.4971C1.4187 12.2535 0.909042 11.8382 0.550307 11.3039C0.191571 10.7696 0 10.1407 0 9.49717C0 8.85365 0.191571 8.2247 0.550307 7.69045C0.909042 7.1562 1.4187 6.74083 2.01435 6.49727C2.61 6.25371 3.26467 6.19298 3.89495 6.32283C4.52523 6.45267 5.1026 6.76721 5.55348 7.22637L10.6393 4.28986C10.4471 3.59777 10.4904 2.86142 10.7623 2.1966C11.0342 1.53178 11.5194 0.976196 12.1416 0.61721ZM15.1639 2.61348C15.0583 2.42779 14.9171 2.26482 14.7483 2.13394C14.5795 2.00307 14.3864 1.90688 14.1803 1.85091C13.9741 1.79495 13.759 1.78031 13.5471 1.80784C13.3353 1.83537 13.131 1.90453 12.946 2.01134C12.761 2.11814 12.599 2.26048 12.4693 2.43017C12.3395 2.59985 12.2446 2.79352 12.19 3.00003C12.1354 3.20654 12.1222 3.42181 12.1511 3.63344C12.1801 3.84508 12.2506 4.0489 12.3586 4.23317C12.5749 4.60215 12.9284 4.87059 13.3419 4.97991C13.7554 5.08924 14.1954 5.03057 14.5658 4.81671C14.9362 4.60285 15.2069 4.25116 15.319 3.8384C15.4311 3.42563 15.3753 2.98529 15.1639 2.61348ZM1.67836 9.92396C1.74401 10.1628 1.86351 10.3834 2.02769 10.5689C2.19187 10.7544 2.39636 10.8998 2.62547 10.9939C2.85457 11.088 3.10221 11.1284 3.34936 11.112C3.59651 11.0956 3.8366 11.0227 4.05121 10.899C4.31323 10.7476 4.52757 10.5258 4.66994 10.2587C4.81232 9.99166 4.87703 9.69007 4.85674 9.38812C4.83645 9.08617 4.73197 8.79594 4.55514 8.55035C4.37832 8.30475 4.13623 8.1136 3.85631 7.99858C3.57639 7.88355 3.26984 7.84925 2.97143 7.89956C2.67301 7.94987 2.39465 8.08278 2.16792 8.28322C1.94118 8.48366 1.77514 8.74362 1.68861 9.03362C1.60209 9.32361 1.59854 9.63205 1.67836 9.92396ZM14.5711 14.1692C14.3868 14.0611 14.183 13.9906 13.9714 13.9617C13.7597 13.9328 13.5445 13.946 13.338 14.0006C13.1315 14.0552 12.9378 14.1501 12.7681 14.2798C12.5984 14.4096 12.4561 14.5716 12.3493 14.7566C12.2425 14.9416 12.1733 15.1459 12.1458 15.3577C12.1183 15.5695 12.1329 15.7847 12.1889 15.9908C12.2448 16.197 12.341 16.39 12.4719 16.5588C12.6028 16.7276 12.7657 16.8689 12.9514 16.9745C13.3232 17.1859 13.7636 17.2416 14.1763 17.1296C14.5891 17.0175 14.9408 16.7467 15.1547 16.3763C15.3685 16.0059 15.4272 15.566 15.3179 15.1525C15.2085 14.739 14.9401 14.3855 14.5711 14.1692Z" fill="#C4C4C4"/>
</svg>
