<svg width="25" height="25" viewBox="0 0 25 25" fill="none" xmlns="http://www.w3.org/2000/svg">
<path d="M20.8335 20.8331L16.6148 16.6143M16.6148 16.6143C17.2919 15.9372 17.829 15.1333 18.1955 14.2486C18.562 13.3639 18.7506 12.4157 18.7506 11.4581C18.7506 10.5004 18.562 9.55222 18.1955 8.66751C17.829 7.7828 17.2919 6.97893 16.6148 6.3018C15.9377 5.62468 15.1338 5.08755 14.2491 4.72109C13.3644 4.35463 12.4161 4.16602 11.4585 4.16602C10.5009 4.16602 9.55271 4.35463 8.668 4.72109C7.78329 5.08755 6.97942 5.62468 6.30229 6.3018C4.93477 7.66933 4.1665 9.52409 4.1665 11.4581C4.1665 13.392 4.93477 15.2468 6.30229 16.6143C7.66982 17.9818 9.52457 18.7501 11.4585 18.7501C13.3925 18.7501 15.2473 17.9818 16.6148 16.6143Z" stroke="#555555" stroke-width="1.5" stroke-linecap="round" stroke-linejoin="round"/>
</svg>
