<svg width="38" height="38" viewBox="0 0 38 38" fill="none" xmlns="http://www.w3.org/2000/svg">
<g clip-path="url(#clip0_825_2189)">
<path fill-rule="evenodd" clip-rule="evenodd" d="M0 6.90909C-1.13451e-07 6.00149 0.178823 5.10277 0.526254 4.2643C0.873684 3.42582 1.38291 2.66402 2.02485 2.0224C2.66678 1.38079 3.42884 0.871943 4.26749 0.524932C5.10614 0.177921 6.00494 -0.000452939 6.91255 8.63716e-07H31.0875C31.9951 -0.000452939 32.8939 0.177921 33.7325 0.524932C34.5712 0.871943 35.3332 1.38079 35.9752 2.0224C36.6171 2.66402 37.1263 3.42582 37.4737 4.2643C37.8212 5.10277 38 6.00149 38 6.90909V31.0909C38 32.9233 37.2721 34.6807 35.9764 35.9764C34.6807 37.2721 32.9233 38 31.0909 38H6.90909C5.07669 38 3.31933 37.2721 2.02363 35.9764C0.72792 34.6807 0 32.9233 0 31.0909V6.90909ZM32.8182 19C32.8182 22.6648 31.3623 26.1795 28.7709 28.7709C26.1795 31.3623 22.6648 32.8182 19 32.8182C15.3352 32.8182 11.8205 31.3623 9.22907 28.7709C6.63766 26.1795 5.18182 22.6648 5.18182 19C5.18182 15.3352 6.63766 11.8205 9.22907 9.22907C11.8205 6.63766 15.3352 5.18182 19 5.18182C22.6648 5.18182 26.1795 6.63766 28.7709 9.22907C31.3623 11.8205 32.8182 15.3352 32.8182 19ZM19 22.4545C19.9162 22.4545 20.7949 22.0906 21.4427 21.4427C22.0906 20.7949 22.4545 19.9162 22.4545 19C22.4545 18.0838 22.0906 17.2051 21.4427 16.5573C20.7949 15.9094 19.9162 15.5455 19 15.5455C18.0838 15.5455 17.2051 15.9094 16.5573 16.5573C15.9094 17.2051 15.5455 18.0838 15.5455 19C15.5455 19.9162 15.9094 20.7949 16.5573 21.4427C17.2051 22.0906 18.0838 22.4545 19 22.4545Z" fill="#6137DD"/>
</g>
<defs>
<clipPath id="clip0_825_2189">
<rect width="38" height="38" fill="white"/>
</clipPath>
</defs>
</svg>
