<svg width="140" height="45" viewBox="0 0 140 45" fill="none" xmlns="http://www.w3.org/2000/svg">
<g clip-path="url(#clip0_719_1675)">
<path d="M17.1032 6.03906H6.55953L0 36.8927H20.4073L21.2333 32.8101H11.3697L17.1032 6.03906Z" fill="#6137DD"/>
<path d="M28.8155 11.5203C29.6902 12.1355 30.7746 12.4437 32.071 12.4437C32.751 12.4437 33.4149 12.3463 34.0636 12.1517C34.7112 11.9571 35.2859 11.6663 35.7887 11.277C36.2903 10.8878 36.6946 10.4186 37.0028 9.86827C37.3098 9.31798 37.4639 8.67037 37.4639 7.92428C37.4639 6.62906 37.0271 5.67328 36.1524 5.0581C35.2777 4.44293 34.2084 4.13477 32.9457 4.13477C32.2332 4.13477 31.5438 4.23208 30.8812 4.42671C30.2173 4.62134 29.6334 4.90518 29.1318 5.27706C28.629 5.65011 28.2328 6.11931 27.9408 6.68582C27.6489 7.2535 27.5029 7.893 27.5029 8.60549C27.5029 9.93431 27.9409 10.9063 28.8144 11.5203H28.8155Z" fill="#6137DD"/>
<path d="M56.676 15.4113L54.4898 18.5695H54.1979C53.9384 17.7921 53.5827 17.1607 53.1286 16.6741C52.6744 16.1887 52.1566 15.8168 51.5738 15.5561C50.9911 15.2978 50.391 15.1194 49.7758 15.0221C49.1607 14.9248 48.593 14.8761 48.0751 14.8761C46.3906 14.8761 44.9576 15.1843 43.7747 15.7994C42.5919 16.4146 41.6036 17.1931 40.8112 18.1315C40.0176 19.0711 39.3851 20.1161 38.9159 21.2653C38.4455 22.4157 38.0899 23.5418 37.8466 24.6424C37.6033 25.7442 37.4492 26.7324 37.3855 27.6059C37.3206 28.4806 37.2882 29.1294 37.2882 29.5499C37.2882 30.3273 37.3623 31.0583 37.5071 31.743C36.2513 32.5898 33.8369 33.4506 33.3631 33.2537C32.9043 33.0625 32.6587 32.6872 32.6587 32.0384C32.6587 31.7152 32.7074 31.261 32.8047 30.6783C32.902 30.0956 33.0306 29.4317 33.194 28.6856L36.8166 13.7686L26.7167 13.9099L23.233 28.8803C23.0708 29.5928 22.9654 30.2404 22.9167 30.8243C22.8681 31.407 22.8438 31.8936 22.8438 32.2817C22.8438 33.3834 23.0303 34.2581 23.4022 34.9057C23.774 35.5545 24.2687 36.048 24.8839 36.3875C25.4991 36.7281 26.1953 36.954 26.9727 37.0675C27.7501 37.1811 28.5437 37.2378 29.3535 37.2378C29.8064 37.2378 30.3324 37.2297 30.9325 37.2135C31.5315 37.1973 32.047 37.1486 32.6066 37.0443C33.2299 36.9285 33.9609 36.5694 34.1405 36.4593C35.5179 35.6171 37.2291 34.1052 38.0354 33.3394C38.2196 33.7194 38.4397 34.0681 38.6958 34.3844C39.1812 34.9845 39.8207 35.4537 40.6154 35.7931C41.409 36.1338 42.3717 36.3029 43.5059 36.3029C44.5092 36.3029 45.4082 36.1813 46.203 35.938C46.9965 35.6947 47.6847 35.3877 48.2674 35.0146C48.8502 34.6427 49.3275 34.2535 49.7005 33.848C50.0724 33.4437 50.3562 33.095 50.5509 32.803H50.8915L50.3087 35.9611C50.1466 36.9007 49.9276 37.6931 49.653 38.3419C49.3773 38.9895 49.0216 39.5085 48.5837 39.8966C48.1469 40.2859 47.5955 40.5686 46.9317 40.747C46.2678 40.9242 45.4499 41.0146 44.4779 41.0146C43.7006 41.0146 42.7691 41.0065 41.6836 40.9903C40.598 40.974 39.5368 40.8848 38.5011 40.7226L37.5778 44.2214C37.967 44.2527 38.4837 44.2862 39.1325 44.3187C39.7801 44.35 40.4602 44.3743 41.1727 44.3917C41.8852 44.4079 42.5814 44.423 43.2615 44.4403C43.9415 44.4565 44.5243 44.4647 45.0108 44.4647C47.6349 44.4647 49.8616 44.2052 51.692 43.6873C53.5213 43.1683 55.0448 42.4558 56.2589 41.5498C57.4742 40.6427 58.4207 39.5734 59.1019 38.343C59.7819 37.1115 60.2685 35.7677 60.5593 34.3102L64.5435 15.409H56.6725L56.676 15.4113ZM51.575 29.7457C51.4777 29.8754 51.3236 30.0538 51.1139 30.2798C50.9031 30.5068 50.6598 30.7258 50.3852 30.9355C50.1095 31.1463 49.8175 31.3329 49.5105 31.4939C49.2024 31.6561 48.8861 31.7372 48.5629 31.7372C48.0114 31.7372 47.6314 31.5182 47.4206 31.0815C47.2097 30.6447 47.1043 30.1025 47.1043 29.4537C47.1043 28.9359 47.1773 28.1342 47.3232 27.0487C47.4692 25.9631 47.7032 24.8706 48.0276 23.7689C48.3508 22.6683 48.7725 21.7044 49.2904 20.8784C49.8083 20.0524 50.457 19.6399 51.2344 19.6399C51.7198 19.6399 52.1334 19.8183 52.4729 20.174C52.8135 20.5308 53.1124 20.8865 53.3719 21.2433L51.5738 29.7457H51.575Z" fill="#6137DD"/>
<path d="M100.382 28.0719L102.375 18.5975H106.213L106.844 15.3421H103.055L104.463 8.83121H99.4586C98.6488 9.86808 97.8957 10.7428 97.1995 11.4552C96.502 12.1677 95.7733 12.7667 95.0134 13.2533C94.2522 13.7387 93.4215 14.1569 92.511 14.4674C91.0883 14.9528 86.7577 15.2355 84.7222 15.1335C84.3839 15.093 84.0329 15.071 83.6668 15.071C82.5002 15.071 81.4483 15.2494 80.5087 15.6051C79.5691 15.9619 78.7593 16.3662 78.0793 16.8192C77.2695 17.3382 76.5558 17.9047 75.9418 18.5199H75.6012L78.7593 3.65147L69.1656 0.000976562L61.8994 36.3043H71.8117L75.0185 21.2424C75.3104 20.9192 75.7229 20.5461 76.2581 20.1244C76.7922 19.7039 77.3517 19.4931 77.9345 19.4931C78.4199 19.4931 78.7848 19.6471 79.0281 19.9541C79.2714 20.2623 79.393 20.6585 79.393 21.1451C79.393 21.5019 79.3444 21.8981 79.2471 22.3361C79.1498 22.7728 79.0687 23.2026 79.0038 23.6232L76.3311 36.3043H86.1947L88.2349 26.83C88.3322 26.3121 88.4538 25.7363 88.5998 25.1049C88.7458 24.4735 88.8825 23.8421 89.0122 23.2096C89.1408 22.5782 89.2555 21.9792 89.3528 21.4116C89.4501 20.845 89.4988 20.3353 89.4988 19.8812C89.4988 19.427 89.4467 18.9949 89.3424 18.5964H92.4634L90.4233 28.2654C90.2611 28.9778 90.1557 29.6255 90.107 30.2093C90.0584 30.7932 90.034 31.2787 90.034 31.6668C90.034 32.7685 90.2206 33.6432 90.5924 34.2908C90.9643 34.9396 91.459 35.4331 92.0742 35.7726C92.6894 36.1132 93.3856 36.3391 94.163 36.4526C94.9404 36.5661 95.734 36.6229 96.5438 36.6229C96.9967 36.6229 97.5227 36.6148 98.1228 36.5986C98.7218 36.5824 99.323 36.5186 99.8826 36.4144C100.506 36.2985 101.211 35.9498 101.391 35.8397C103.262 34.6963 105.69 32.319 105.688 32.253C105.688 32.2507 105.683 32.2507 105.682 32.2483L104.916 30.9705C103.749 31.8649 101.055 32.8485 100.551 32.6399C100.092 32.4488 99.8467 32.0734 99.8467 31.4246C99.8467 31.1014 99.8953 30.6473 99.9927 30.0645C100.09 29.4818 100.219 28.818 100.382 28.0719Z" fill="#6137DD"/>
<path d="M108.109 25.1534C108.748 24.6204 109.461 24.2567 110.255 24.0632C111.047 23.8709 111.892 23.8257 112.789 23.9288C113.685 24.0319 114.562 24.2648 115.419 24.6262C116.406 25.0433 117.225 25.5762 117.883 26.2227L125.368 8.22392C124.85 8.17411 124.326 8.14746 123.796 8.14746C114.847 8.14746 107.593 15.4021 107.593 24.3505C107.593 24.771 107.609 25.1881 107.64 25.6005C107.787 25.4407 107.944 25.2901 108.109 25.151V25.1534Z" fill="#6137DD"/>
<path d="M132.093 28.5875L137.302 15.4001C135.728 13.032 133.55 11.1019 130.988 9.83105L132.093 28.5886V28.5875Z" fill="#6137DD"/>
<path d="M131.857 38.4121C136.722 35.6166 140 30.3674 140 24.3523C140 22.4883 139.684 20.6984 139.104 19.0312L131.855 38.4121H131.857Z" fill="#6137DD"/>
<path d="M124.318 17.7529L119.212 30.6577C119.139 30.9253 119.044 31.1975 118.927 31.4767C118.549 32.3723 118.035 33.0732 117.387 33.5783C116.737 34.0846 116.011 34.4425 115.211 34.6557C114.409 34.8677 113.57 34.9268 112.693 34.8318C112.183 34.7762 111.683 34.6777 111.194 34.5375C114.165 38.2089 118.706 40.556 123.796 40.556C124.342 40.556 124.882 40.5282 125.415 40.4761L124.317 17.7529H124.318Z" fill="#6137DD"/>
</g>
<defs>
<clipPath id="clip0_719_1675">
<rect width="140" height="44.4663" fill="white"/>
</clipPath>
</defs>
</svg>
