<svg width="27" height="28" viewBox="0 0 27 28" fill="none" xmlns="http://www.w3.org/2000/svg">
<path d="M22.4999 23.0004L17.9437 18.4442M17.9437 18.4442C18.675 17.7129 19.2551 16.8447 19.6508 15.8892C20.0466 14.9337 20.2503 13.9096 20.2503 12.8754C20.2503 11.8412 20.0466 10.8171 19.6508 9.86162C19.2551 8.90613 18.675 8.03795 17.9437 7.30665C17.2124 6.57535 16.3442 5.99526 15.3887 5.59948C14.4332 5.2037 13.4091 5 12.3749 5C11.3407 5 10.3166 5.2037 9.36113 5.59948C8.40564 5.99526 7.53746 6.57535 6.80616 7.30665C5.32924 8.78358 4.49951 10.7867 4.49951 12.8754C4.49951 14.9641 5.32924 16.9672 6.80616 18.4442C8.28309 19.9211 10.2862 20.7508 12.3749 20.7508C14.4636 20.7508 16.4667 19.9211 17.9437 18.4442Z" stroke="black" stroke-width="1.5" stroke-linecap="round" stroke-linejoin="round"/>
</svg>
