<svg width="20" height="18" viewBox="0 0 20 18" fill="none" xmlns="http://www.w3.org/2000/svg">
<path d="M4.82353 0.734185C5.97455 0.456801 7.17896 0.611365 8.23174 1.16876C8.93446 1.54085 9.53951 2.07564 10.0071 2.72442C10.3612 2.24393 10.7916 1.82678 11.2835 1.49395C12.1038 0.939013 13.0598 0.641935 14.0384 0.644341C15.4089 0.644596 16.7137 1.22841 17.6683 2.25079C18.6216 3.27183 19.1496 4.64799 19.1497 6.07403C19.1497 7.27604 18.7229 8.49014 18.1009 9.62969C17.4763 10.7739 16.6317 11.8851 15.7415 12.8924C13.9617 14.9063 11.9461 16.5657 10.9769 17.3231C10.4007 17.7733 9.59993 17.7733 9.02373 17.3231C8.05457 16.5658 6.03814 14.9066 4.2581 12.8924C3.36788 11.8851 2.52333 10.7739 1.89873 9.62969C1.27739 8.49132 0.850743 7.27871 0.849901 6.07793C0.837533 4.84921 1.21858 3.64755 1.93682 2.67461C2.6562 1.7002 3.67349 1.01143 4.82353 0.734185Z" fill="#555555"/>
</svg>
