<svg width="23" height="23" viewBox="0 0 23 23" fill="none" xmlns="http://www.w3.org/2000/svg">
<path d="M1.10076 12.0445C1.53411 11.6827 2.01858 11.4357 2.55731 11.3044C3.09526 11.1738 3.6686 11.1432 4.27733 11.2132C4.88606 11.2832 5.48142 11.4412 6.06263 11.6866C6.7327 11.9697 7.28874 12.3315 7.73546 12.7704L12.8169 0.551906C12.4653 0.518088 12.1098 0.5 11.7496 0.5C5.67489 0.5 0.75 5.42482 0.75 11.4994C0.75 11.7849 0.761009 12.0681 0.782243 12.348C0.882125 12.2395 0.988298 12.1373 1.10076 12.0429V12.0445Z" fill="#6137DD"/>
<path d="M17.3824 14.3754L20.9184 5.4231C19.8503 3.81557 18.3718 2.50533 16.6321 1.64258L17.3824 14.3762V14.3754Z" fill="#6137DD"/>
<path d="M17.222 21.0454C20.5252 19.1476 22.7501 15.5842 22.7501 11.5009C22.7501 10.2355 22.5354 9.02039 22.1422 7.88867L17.2212 21.0454H17.222Z" fill="#6137DD"/>
<path d="M12.1042 7.02051L8.63825 15.7809C8.5887 15.9626 8.52422 16.1474 8.44478 16.3369C8.18761 16.9449 7.83919 17.4207 7.39877 17.7636C6.95756 18.1072 6.46522 18.3503 5.92177 18.495C5.37753 18.6389 4.80813 18.679 4.21276 18.6145C3.86593 18.5768 3.52696 18.5099 3.19507 18.4148C5.21159 20.907 8.29456 22.5004 11.7495 22.5004C12.1208 22.5004 12.4873 22.4815 12.849 22.4462L12.1034 7.02051H12.1042Z" fill="#6137DD"/>
</svg>
