<svg width="23" height="23" viewBox="0 0 23 23" fill="none" xmlns="http://www.w3.org/2000/svg">
<path d="M5.08333 21.4997C6.92428 21.4997 8.41667 20.0073 8.41667 18.1663C8.41667 16.3254 6.92428 14.833 5.08333 14.833C3.24238 14.833 1.75 16.3254 1.75 18.1663C1.75 20.0073 3.24238 21.4997 5.08333 21.4997Z" fill="#D2D2D2" stroke="#D2D2D2" stroke-width="2" stroke-linecap="round" stroke-linejoin="round"/>
<path d="M18.4166 20.3893C20.2575 20.3893 21.7499 18.8969 21.7499 17.056C21.7499 15.215 20.2575 13.7227 18.4166 13.7227C16.5756 13.7227 15.0833 15.215 15.0833 17.056C15.0833 18.8969 16.5756 20.3893 18.4166 20.3893Z" fill="#D2D2D2" stroke="#D2D2D2" stroke-width="2" stroke-linecap="round" stroke-linejoin="round"/>
<path d="M21.7501 1.5L8.41675 4.83333V9.27778L21.7501 5.94444V1.5Z" fill="#D2D2D2"/>
<path d="M8.41675 18.1667V9.27778M8.41675 9.27778V4.83333L21.7501 1.5V5.94444M8.41675 9.27778L21.7501 5.94444M21.7501 17.0556V5.94444" stroke="#D2D2D2" stroke-width="2" stroke-linecap="round" stroke-linejoin="round"/>
</svg>
