<svg width="9" height="12" viewBox="0 0 9 12" fill="none" xmlns="http://www.w3.org/2000/svg">
<path fill-rule="evenodd" clip-rule="evenodd" d="M4.5 11.3998L4.89825 11.8234C4.84599 11.8794 4.78388 11.9238 4.71549 11.9541C4.6471 11.9844 4.57377 12 4.49972 12C4.42566 12 4.35234 11.9844 4.28395 11.9541C4.21556 11.9238 4.15345 11.8794 4.10119 11.8234L4.09781 11.8192L4.08825 11.809L4.05338 11.7712C3.85511 11.5533 3.66008 11.3321 3.46838 11.1076C2.98728 10.545 2.52645 9.96295 2.08687 9.36286C1.58512 8.67287 1.07212 7.89289 0.682312 7.1225C0.300937 6.36711 0 5.54872 0 4.79993C0 2.07657 2.0205 0 4.5 0C6.9795 0 9 2.07657 9 4.79993C9 5.54872 8.69906 6.36711 8.31769 7.1219C7.92788 7.89349 7.41544 8.67287 6.91313 9.36286C6.29818 10.2023 5.64175 11.0063 4.94662 11.7712L4.91175 11.809L4.90219 11.8192L4.89881 11.8228L4.5 11.3998ZM4.5 6.5999C4.94755 6.5999 5.37678 6.41026 5.69324 6.0727C6.00971 5.73514 6.1875 5.27731 6.1875 4.79993C6.1875 4.32255 6.00971 3.86472 5.69324 3.52716C5.37678 3.1896 4.94755 2.99996 4.5 2.99996C4.05245 2.99996 3.62322 3.1896 3.30676 3.52716C2.99029 3.86472 2.8125 4.32255 2.8125 4.79993C2.8125 5.27731 2.99029 5.73514 3.30676 6.0727C3.62322 6.41026 4.05245 6.5999 4.5 6.5999Z" fill="#555555"/>
</svg>
