<svg width="15" height="17" viewBox="0 0 15 17" fill="none" xmlns="http://www.w3.org/2000/svg">
<path fill-rule="evenodd" clip-rule="evenodd" d="M7.5 15.6998L8.07525 16.2646C7.99976 16.3392 7.91005 16.3984 7.81126 16.4388C7.71248 16.4792 7.60656 16.5 7.49959 16.5C7.39262 16.5 7.28671 16.4792 7.18792 16.4388C7.08914 16.3984 6.99943 16.3392 6.92394 16.2646L6.91906 16.259L6.90525 16.2454L6.85488 16.195C6.56849 15.9044 6.28679 15.6095 6.00988 15.3102C5.31496 14.5599 4.64931 13.7839 4.01437 12.9838C3.28962 12.0638 2.54862 11.0238 1.98556 9.99666C1.43469 8.98948 1 7.89829 1 6.89991C1 3.26876 3.9185 0.5 7.5 0.5C11.0815 0.5 14 3.26876 14 6.89991C14 7.89829 13.5653 8.98948 13.0144 9.99586C12.4514 11.0246 11.7112 12.0638 10.9856 12.9838C10.0974 14.1031 9.14919 15.175 8.14512 16.195L8.09475 16.2454L8.08094 16.259L8.07606 16.2638L7.5 15.6998ZM7.5 9.29987C8.14647 9.29987 8.76645 9.04702 9.22357 8.59694C9.68069 8.14686 9.9375 7.53642 9.9375 6.89991C9.9375 6.2634 9.68069 5.65296 9.22357 5.20288C8.76645 4.75279 8.14647 4.49994 7.5 4.49994C6.85353 4.49994 6.23355 4.75279 5.77643 5.20288C5.31931 5.65296 5.0625 6.2634 5.0625 6.89991C5.0625 7.53642 5.31931 8.14686 5.77643 8.59694C6.23355 9.04702 6.85353 9.29987 7.5 9.29987Z" fill="#555555"/>
</svg>
