<svg width="23" height="26" viewBox="0 0 23 26" fill="none" xmlns="http://www.w3.org/2000/svg">
<path d="M18.75 18.1455C20.3063 18.8068 21.25 19.6743 21.25 20.6255C21.25 22.6968 16.7725 24.3755 11.25 24.3755C5.7275 24.3755 1.25 22.6968 1.25 20.6255C1.25 19.6755 2.19375 18.8055 3.75 18.1455" stroke="#C4C4C4" stroke-width="2" stroke-linecap="round" stroke-linejoin="round"/>
<path fill-rule="evenodd" clip-rule="evenodd" d="M12.1725 20.2188L12.1788 20.2125L12.1938 20.195L12.25 20.1325L12.4575 19.9C13.4965 18.7173 14.476 17.4837 15.3925 16.2038C16.195 15.0788 17.0175 13.8038 17.6437 12.5375C18.2562 11.3 18.75 9.93875 18.75 8.68C18.75 4.21375 15.4775 0.625 11.25 0.625C7.0225 0.625 3.75 4.2125 3.75 8.68C3.75 9.93875 4.24375 11.3 4.85625 12.5375C5.4825 13.8038 6.30625 15.0788 7.10625 16.2038C8.08402 17.568 9.13341 18.8794 10.25 20.1325L10.3062 20.195L10.3212 20.2125L10.3275 20.2188C10.4446 20.3468 10.5871 20.4491 10.746 20.5191C10.9048 20.5891 11.0764 20.6252 11.25 20.6252C11.4236 20.6252 11.5952 20.5891 11.754 20.5191C11.9129 20.4491 12.0554 20.3468 12.1725 20.2188ZM11.25 5.625C10.587 5.625 9.95107 5.88839 9.48223 6.35723C9.01339 6.82607 8.75 7.46196 8.75 8.125C8.75 8.78804 9.01339 9.42393 9.48223 9.89277C9.95107 10.3616 10.587 10.625 11.25 10.625C11.913 10.625 12.5489 10.3616 13.0178 9.89277C13.4866 9.42393 13.75 8.78804 13.75 8.125C13.75 7.46196 13.4866 6.82607 13.0178 6.35723C12.5489 5.88839 11.913 5.625 11.25 5.625Z" fill="#C4C4C4"/>
</svg>
