<svg width="20" height="20" viewBox="0 0 20 20" fill="none" xmlns="http://www.w3.org/2000/svg">
<path d="M10 2.5V4.16667" stroke="#6137DD" stroke-width="2" stroke-linecap="round" stroke-linejoin="round"/>
<path d="M9.99992 4.16699C7.24159 4.16699 4.99992 6.40866 4.99992 9.16699V14.167C4.16659 14.167 3.33325 15.0003 3.33325 15.8337H9.99992M9.99992 4.16699C12.7583 4.16699 14.9999 6.40866 14.9999 9.16699V14.167C15.8333 14.167 16.6666 15.0003 16.6666 15.8337H9.99992" fill="#6137DD"/>
<path d="M9.99992 4.16699C7.24158 4.16699 4.99992 6.40866 4.99992 9.16699V14.167C4.16659 14.167 3.33325 15.0003 3.33325 15.8337H9.99992H16.6666C16.6666 15.0003 15.8333 14.167 14.9999 14.167V9.16699C14.9999 6.40866 12.7583 4.16699 9.99992 4.16699Z" stroke="#6137DD" stroke-width="2" stroke-linecap="round" stroke-linejoin="round"/>
<path d="M8.33325 16.667C8.33325 17.5837 9.08325 18.3337 9.99992 18.3337C10.9166 18.3337 11.6666 17.5837 11.6666 16.667" stroke="#6137DD" stroke-width="2" stroke-linecap="round" stroke-linejoin="round"/>
</svg>
