<svg width="16" height="17" viewBox="0 0 16 17" fill="none" xmlns="http://www.w3.org/2000/svg">
<path d="M1 12.25C1 12.7141 1.18437 13.1592 1.51256 13.4874C1.84075 13.8156 2.28587 14 2.75 14H13.25C13.7141 14 14.1592 13.8156 14.4874 13.4874C14.8156 13.1592 15 12.7141 15 12.25V7.4375H1V12.25ZM3.0625 9.875C3.0625 9.62636 3.16127 9.3879 3.33709 9.21209C3.5129 9.03627 3.75136 8.9375 4 8.9375H5.5C5.74864 8.9375 5.9871 9.03627 6.16291 9.21209C6.33873 9.3879 6.4375 9.62636 6.4375 9.875V10.5C6.4375 10.7486 6.33873 10.9871 6.16291 11.1629C5.9871 11.3387 5.74864 11.4375 5.5 11.4375H4C3.75136 11.4375 3.5129 11.3387 3.33709 11.1629C3.16127 10.9871 3.0625 10.7486 3.0625 10.5V9.875ZM13.25 3H2.75C2.28587 3 1.84075 3.18437 1.51256 3.51256C1.18437 3.84075 1 4.28587 1 4.75V5.5625H15V4.75C15 4.28587 14.8156 3.84075 14.4874 3.51256C14.1592 3.18437 13.7141 3 13.25 3Z" fill="#555555"/>
</svg>
