<svg width="24" height="25" viewBox="0 0 24 25" fill="none" xmlns="http://www.w3.org/2000/svg">
<path d="M17.2222 6.16797H4.77778C3.79594 6.16797 3 6.96391 3 7.94575V17.7235C3 18.7054 3.79594 19.5013 4.77778 19.5013H17.2222C18.2041 19.5013 19 18.7054 19 17.7235V7.94575C19 6.96391 18.2041 6.16797 17.2222 6.16797Z" stroke="#ABABAB" stroke-width="2"/>
<path d="M3 9.72352C3 8.04708 3 7.20975 3.52089 6.68886C4.04178 6.16797 4.87911 6.16797 6.55556 6.16797H15.4444C17.1209 6.16797 17.9582 6.16797 18.4791 6.68886C19 7.20975 19 8.04708 19 9.72352H3Z" fill="#ABABAB"/>
<path d="M6.55566 3.5V6.16667M15.4446 3.5V6.16667" stroke="#ABABAB" stroke-width="2" stroke-linecap="round"/>
</svg>
