<svg width="20" height="18" viewBox="0 0 20 18" fill="none" xmlns="http://www.w3.org/2000/svg">
<path fill-rule="evenodd" clip-rule="evenodd" d="M4.82405 0.734065C5.97514 0.456662 7.17923 0.61175 8.23206 1.16924C8.93478 1.54133 9.53928 2.0761 10.0069 2.72487C10.3611 2.24406 10.7919 1.82667 11.2841 1.49369C12.1045 0.938757 13.0599 0.642601 14.0385 0.645008C15.4091 0.64525 16.7136 1.2289 17.6682 2.25132C18.6216 3.27244 19.1501 4.64841 19.1501 6.07456C19.1501 7.27661 18.7234 8.49058 18.1014 9.63016C17.4768 10.7744 16.6324 11.8852 15.7422 12.8925C13.962 14.9068 11.9457 16.5664 10.9766 17.3236C10.4004 17.7738 9.60009 17.7738 9.02389 17.3236C8.05478 16.5664 6.03847 14.9068 4.25834 12.8925C3.36811 11.8852 2.52371 10.7744 1.89911 9.63016C1.27767 8.49168 0.851212 7.27895 0.850389 6.07804C0.838021 4.84932 1.21908 3.64821 1.93731 2.67528C2.65678 1.70067 3.67378 1.01127 4.82405 0.734065ZM14.0385 0.645008C14.0388 0.645009 14.0391 0.645009 14.0394 0.64501L14.0377 1.29483V0.645008C14.038 0.645008 14.0382 0.645008 14.0385 0.645008ZM7.62372 2.31811C6.84767 1.90719 5.96793 1.79562 5.12861 1.99788C4.28846 2.20035 3.5291 2.70788 2.9832 3.44736C2.43674 4.18761 2.14017 5.11254 2.15035 6.06763L2.15043 6.07456H2.15039C2.15039 6.97808 2.47522 7.9723 3.04019 9.0073C3.6026 10.0376 4.3807 11.0678 5.23245 12.0316C6.93627 13.9596 8.8818 15.5628 9.82427 16.2992C9.93015 16.3819 10.0703 16.3819 10.1762 16.2992C11.1187 15.5628 13.0642 13.9596 14.768 12.0316C15.6198 11.0678 16.3979 10.0376 16.9603 9.0073C17.5253 7.9723 17.8501 6.97808 17.8501 6.07456C17.8501 4.96549 17.4383 3.91005 16.718 3.13849C15.999 2.36844 15.0338 1.94501 14.0377 1.94501L14.036 1.94501C13.3236 1.94313 12.6219 2.15827 12.0125 2.57047C11.4026 2.98304 10.9089 3.57735 10.5949 4.2887C10.4904 4.52531 10.2556 4.67747 9.99698 4.67617C9.73835 4.67488 9.50509 4.52037 9.40301 4.28273C9.03241 3.41998 8.40096 2.72967 7.62372 2.31811Z" fill="#555555"/>
</svg>
