<svg width="15" height="15" viewBox="0 0 15 15" fill="none" xmlns="http://www.w3.org/2000/svg">
<path d="M3.16667 13.9993C4.36328 13.9993 5.33333 13.0293 5.33333 11.8327C5.33333 10.6361 4.36328 9.66602 3.16667 9.66602C1.97005 9.66602 1 10.6361 1 11.8327C1 13.0293 1.97005 13.9993 3.16667 13.9993Z" fill="#6137DD" stroke="#6137DD" stroke-width="1.3" stroke-linecap="round" stroke-linejoin="round"/>
<path d="M11.8334 13.2786C13.03 13.2786 14.0001 12.3086 14.0001 11.112C14.0001 9.91536 13.03 8.94531 11.8334 8.94531C10.6368 8.94531 9.66675 9.91536 9.66675 11.112C9.66675 12.3086 10.6368 13.2786 11.8334 13.2786Z" fill="#6137DD" stroke="#6137DD" stroke-width="1.3" stroke-linecap="round" stroke-linejoin="round"/>
<path d="M13.9999 1L5.33325 3.16667V6.05556L13.9999 3.88889V1Z" fill="#6137DD"/>
<path d="M5.33325 11.8333V6.05556M5.33325 6.05556V3.16667L13.9999 1V3.88889M5.33325 6.05556L13.9999 3.88889M13.9999 11.1111V3.88889" stroke="#6137DD" stroke-width="1.3" stroke-linecap="round" stroke-linejoin="round"/>
</svg>
