<svg width="17" height="19" viewBox="0 0 17 19" fill="none" xmlns="http://www.w3.org/2000/svg">
<path d="M12.1416 0.800804C12.6663 0.498004 13.2655 0.348429 13.871 0.369068C14.4765 0.389708 15.064 0.579734 15.5669 0.917564C16.0699 1.25539 16.468 1.72749 16.716 2.28022C16.9641 2.83296 17.0522 3.44418 16.9703 4.04446C16.8884 4.64475 16.6398 5.21004 16.2527 5.67612C15.8657 6.14221 15.3557 6.49041 14.7806 6.68118C14.2056 6.87194 13.5886 6.89763 12.9997 6.75532C12.4108 6.61301 11.8736 6.30841 11.4492 5.87611L6.36332 8.81261C6.44269 9.10038 6.48183 9.38976 6.48075 9.68077C6.48075 9.97069 6.44269 10.263 6.36332 10.5489L11.4492 13.4854C12.0022 12.9246 12.7405 12.5844 13.5261 12.5283C14.3117 12.4722 15.0908 12.7041 15.7179 13.1807C16.345 13.6572 16.7771 14.3458 16.9334 15.1177C17.0897 15.8897 16.9596 16.6921 16.5674 17.3751C16.1739 18.0593 15.5441 18.5762 14.7964 18.8289C14.0486 19.0815 13.2344 19.0525 12.5065 18.7473C11.7787 18.442 11.1873 17.8815 10.8435 17.1711C10.4997 16.4606 10.4271 15.6491 10.6393 14.8889L5.55348 11.9516C5.1026 12.4107 4.52523 12.7253 3.89495 12.8551C3.26467 12.985 2.61 12.9242 2.01435 12.6807C1.4187 12.4371 0.909042 12.0217 0.550307 11.4875C0.191571 10.9532 0 10.3243 0 9.68077C0 9.03725 0.191571 8.4083 0.550307 7.87404C0.909042 7.33979 1.4187 6.92442 2.01435 6.68086C2.61 6.4373 3.26467 6.37658 3.89495 6.50642C4.52523 6.63627 5.1026 6.9508 5.55348 7.40996L10.6393 4.47346C10.4471 3.78136 10.4904 3.04502 10.7623 2.38019C11.0342 1.71537 11.5194 1.15979 12.1416 0.800804ZM15.1639 2.79707C15.0583 2.61138 14.9171 2.44841 14.7483 2.31754C14.5795 2.18666 14.3864 2.09047 14.1803 2.03451C13.9741 1.97854 13.759 1.9639 13.5471 1.99144C13.3353 2.01897 13.131 2.08813 12.946 2.19493C12.761 2.30174 12.599 2.44408 12.4693 2.61376C12.3395 2.78344 12.2446 2.97711 12.19 3.18362C12.1354 3.39013 12.1222 3.6054 12.1511 3.81704C12.1801 4.02867 12.2506 4.23249 12.3586 4.41677C12.5749 4.78574 12.9284 5.05418 13.3419 5.16351C13.7554 5.27283 14.1954 5.21416 14.5658 5.0003C14.9362 4.78644 15.2069 4.43476 15.319 4.02199C15.4311 3.60922 15.3753 3.16889 15.1639 2.79707ZM1.67836 10.1076C1.74401 10.3464 1.86351 10.567 2.02769 10.7525C2.19187 10.938 2.39636 11.0833 2.62547 11.1775C2.85457 11.2716 3.10221 11.312 3.34936 11.2956C3.59651 11.2791 3.8366 11.2063 4.05121 11.0826C4.31323 10.9312 4.52757 10.7094 4.66994 10.4423C4.81232 10.1753 4.87703 9.87366 4.85674 9.57171C4.83645 9.26976 4.73197 8.97954 4.55514 8.73394C4.37832 8.48834 4.13623 8.29719 3.85631 8.18217C3.57639 8.06715 3.26984 8.03284 2.97143 8.08315C2.67301 8.13347 2.39465 8.26638 2.16792 8.46682C1.94118 8.66726 1.77514 8.92721 1.68861 9.21721C1.60209 9.50721 1.59854 9.81565 1.67836 10.1076ZM14.5711 14.3528C14.3868 14.2447 14.183 14.1742 13.9714 14.1453C13.7597 14.1164 13.5445 14.1296 13.338 14.1842C13.1315 14.2388 12.9378 14.3337 12.7681 14.4634C12.5984 14.5932 12.4561 14.7552 12.3493 14.9402C12.2425 15.1252 12.1733 15.3295 12.1458 15.5413C12.1183 15.7531 12.1329 15.9683 12.1889 16.1744C12.2448 16.3806 12.341 16.5736 12.4719 16.7424C12.6028 16.9112 12.7657 17.0525 12.9514 17.1581C13.3232 17.3695 13.7636 17.4252 14.1763 17.3132C14.5891 17.2011 14.9408 16.9303 15.1547 16.5599C15.3685 16.1895 15.4272 15.7496 15.3179 15.3361C15.2085 14.9226 14.9401 14.5691 14.5711 14.3528Z" fill="#C4C4C4"/>
</svg>
