<svg width="402" height="100" viewBox="0 0 402 100" fill="none" xmlns="http://www.w3.org/2000/svg">
<g clip-path="url(#clip0_3456_30608)">
<path d="M135.257 7.46973H122.153L114 45.6324H139.363L140.39 40.5826H128.131L135.257 7.46973Z" fill="white"/>
<path d="M149.814 14.2484C150.901 15.0093 152.249 15.3905 153.86 15.3905C154.705 15.3905 155.53 15.2701 156.336 15.0294C157.141 14.7886 157.856 14.429 158.48 13.9475C159.104 13.466 159.606 12.8857 159.989 12.205C160.371 11.5244 160.563 10.7233 160.563 9.8005C160.563 8.19845 160.02 7.01626 158.933 6.25535C157.845 5.49445 156.516 5.11328 154.947 5.11328C154.061 5.11328 153.205 5.23365 152.381 5.47439C151.556 5.71513 150.83 6.0662 150.207 6.52618C149.582 6.9876 149.09 7.56795 148.727 8.26867C148.364 8.97082 148.182 9.76181 148.182 10.6431C148.182 12.2867 148.727 13.4889 149.812 14.2484H149.814Z" fill="white"/>
<path d="M184.44 19.0622L181.723 22.9685H181.36C181.038 22.007 180.596 21.226 180.031 20.6241C179.467 20.0237 178.823 19.5638 178.099 19.2413C177.375 18.9218 176.629 18.7011 175.864 18.5807C175.1 18.4604 174.394 18.4002 173.75 18.4002C171.657 18.4002 169.876 18.7814 168.406 19.5423C166.935 20.3032 165.707 21.2661 164.722 22.4268C163.736 23.5889 162.95 24.8815 162.367 26.303C161.782 27.7259 161.34 29.1188 161.038 30.4801C160.735 31.8428 160.544 33.0651 160.465 34.1456C160.384 35.2275 160.344 36.0299 160.344 36.5501C160.344 37.5116 160.436 38.4158 160.616 39.2627C159.055 40.3102 156.054 41.3749 155.465 41.1313C154.895 40.8948 154.59 40.4306 154.59 39.6281C154.59 39.2283 154.65 38.6666 154.771 37.9458C154.892 37.225 155.052 36.4039 155.255 35.4811L159.758 17.0303L147.205 17.2051L142.875 35.7218C142.674 36.6031 142.543 37.4041 142.482 38.1264C142.422 38.8471 142.391 39.449 142.391 39.929C142.391 41.2918 142.623 42.3737 143.085 43.1747C143.548 43.9771 144.162 44.5876 144.927 45.0074C145.692 45.4287 146.557 45.7082 147.523 45.8486C148.489 45.989 149.476 46.0592 150.482 46.0592C151.045 46.0592 151.699 46.0492 152.445 46.0291C153.189 46.0091 153.83 45.9489 154.525 45.8199C155.3 45.6766 156.208 45.2324 156.432 45.0963C158.144 44.0545 160.27 42.1845 161.272 41.2373C161.501 41.7073 161.775 42.1387 162.093 42.5299C162.697 43.2721 163.491 43.8525 164.479 44.2723C165.465 44.6936 166.662 44.9028 168.072 44.9028C169.318 44.9028 170.436 44.7524 171.424 44.4515C172.41 44.1505 173.265 43.7708 173.989 43.3094C174.714 42.8494 175.307 42.3679 175.771 41.8664C176.233 41.3663 176.586 40.935 176.827 40.5739H177.251L176.526 44.4801C176.325 45.6422 176.053 46.6224 175.712 47.4249C175.369 48.2259 174.927 48.8678 174.383 49.3479C173.84 49.8294 173.154 50.179 172.329 50.3997C171.504 50.6189 170.488 50.7307 169.28 50.7307C168.313 50.7307 167.156 50.7207 165.807 50.7006C164.457 50.6805 163.139 50.5702 161.851 50.3696L160.704 54.6971C161.188 54.7358 161.83 54.7774 162.636 54.8175C163.441 54.8562 164.286 54.8863 165.172 54.9078C166.057 54.9279 166.923 54.9465 167.768 54.968C168.613 54.988 169.337 54.9981 169.942 54.9981C173.203 54.9981 175.971 54.6771 178.246 54.0365C180.519 53.3946 182.413 52.5133 183.922 51.3927C185.432 50.2707 186.608 48.9481 187.455 47.4263C188.3 45.903 188.905 44.2408 189.266 42.4381L194.218 19.0593H184.436L184.44 19.0622ZM178.1 36.7923C177.979 36.9528 177.788 37.1734 177.527 37.4529C177.265 37.7337 176.963 38.0046 176.622 38.2639C176.279 38.5247 175.916 38.7554 175.534 38.9546C175.151 39.1552 174.758 39.2555 174.357 39.2555C173.671 39.2555 173.199 38.9847 172.937 38.4445C172.675 37.9042 172.544 37.2336 172.544 36.4312C172.544 35.7906 172.635 34.799 172.816 33.4563C172.997 32.1136 173.288 30.7624 173.691 29.3996C174.093 28.0383 174.617 26.8461 175.261 25.8244C175.904 24.8027 176.711 24.2925 177.677 24.2925C178.28 24.2925 178.794 24.5132 179.216 24.9531C179.639 25.3945 180.011 25.8344 180.334 26.2758L178.099 36.7923H178.1Z" fill="white"/>
<path d="M238.761 34.7217L241.237 23.0029H246.007L246.792 18.9763H242.082L243.833 10.923H237.613C236.607 12.2055 235.671 13.2874 234.805 14.1687C233.938 15.05 233.033 15.7908 232.088 16.3926C231.142 16.9931 230.11 17.5104 228.978 17.8944C227.21 18.4948 221.828 18.8444 219.298 18.7183C218.877 18.6682 218.441 18.641 217.986 18.641C216.536 18.641 215.229 18.8616 214.061 19.3016C212.893 19.7429 211.887 20.243 211.042 20.8033C210.035 21.4453 209.148 22.146 208.385 22.9069H207.962L211.887 4.51624L199.963 0.000976562L190.932 44.9043H203.252L207.237 26.2744C207.6 25.8746 208.113 25.4131 208.778 24.8915C209.442 24.3714 210.137 24.1106 210.862 24.1106C211.465 24.1106 211.918 24.3012 212.221 24.6809C212.523 25.0621 212.674 25.5521 212.674 26.154C212.674 26.5953 212.614 27.0854 212.493 27.6271C212.372 28.1673 212.271 28.6989 212.191 29.2191L208.869 44.9043H221.128L223.664 33.1855C223.784 32.545 223.936 31.8328 224.117 31.0519C224.298 30.2709 224.468 29.4899 224.63 28.7075C224.789 27.9266 224.932 27.1857 225.053 26.4836C225.174 25.7829 225.234 25.1523 225.234 24.5906C225.234 24.0289 225.17 23.4944 225.04 23.0015H228.919L226.383 34.961C226.182 35.8423 226.051 36.6433 225.99 37.3655C225.93 38.0877 225.9 38.6881 225.9 39.1682C225.9 40.5309 226.131 41.6128 226.594 42.4138C227.056 43.2163 227.671 43.8267 228.435 44.2466C229.2 44.6679 230.065 44.9473 231.031 45.0877C231.997 45.2282 232.984 45.2984 233.99 45.2984C234.553 45.2984 235.207 45.2883 235.953 45.2683C236.697 45.2482 237.445 45.1694 238.14 45.0404C238.915 44.8971 239.792 44.4658 240.015 44.3297C242.34 42.9154 245.358 39.9749 245.355 39.8932C245.355 39.8904 245.349 39.8904 245.348 39.8875L244.396 38.307C242.945 39.4132 239.597 40.6298 238.971 40.3719C238.401 40.1354 238.095 39.6711 238.095 38.8687C238.095 38.4689 238.156 37.9072 238.277 37.1864C238.398 36.4656 238.558 35.6445 238.761 34.7217Z" fill="white"/>
<path d="M248.365 31.1126C249.158 30.4534 250.045 30.0035 251.031 29.7642C252.016 29.5263 253.066 29.4704 254.18 29.5979C255.295 29.7255 256.385 30.0135 257.449 30.4606C258.675 30.9765 259.693 31.6356 260.511 32.4352L269.814 10.1727C269.171 10.1111 268.52 10.0781 267.86 10.0781C256.739 10.0781 247.722 19.0513 247.722 30.1195C247.722 30.6397 247.743 31.1556 247.781 31.6657C247.964 31.468 248.159 31.2817 248.365 31.1097V31.1126Z" fill="white"/>
<path d="M278.173 35.3598L284.647 19.0484C282.691 16.1194 279.984 13.7321 276.799 12.1602L278.173 35.3613V35.3598Z" fill="white"/>
<path d="M277.879 47.5121C283.927 44.0543 288 37.5616 288 30.1216C288 27.816 287.607 25.6021 286.887 23.54L277.878 47.5121H277.879Z" fill="white"/>
<path d="M268.51 21.959L262.164 37.9208C262.073 38.2518 261.955 38.5885 261.81 38.9339C261.339 40.0415 260.701 40.9085 259.895 41.5333C259.087 42.1595 258.186 42.6023 257.191 42.8659C256.194 43.1282 255.152 43.2012 254.062 43.0837C253.427 43.0149 252.806 42.8931 252.199 42.7198C255.891 47.2608 261.535 50.164 267.86 50.164C268.54 50.164 269.211 50.1296 269.873 50.0651L268.508 21.959H268.51Z" fill="white"/>
</g>
<path d="M128.351 75.2451V88.8623H125.747V82.1768H122.691V80.0645H125.747V75.2451H128.351ZM128.802 91.4668V93.5586H115.964V87.6729H118.589V91.4668H128.802ZM119.676 78.8955C119.676 81.0488 120.989 83.3662 123.962 84.3301L122.67 86.4014C120.599 85.7349 119.184 84.3711 118.364 82.6689C117.543 84.5557 116.057 86.0527 113.852 86.791L112.519 84.6582C115.595 83.6943 116.99 81.2539 117.01 78.875V78.5879H113.257V76.4961H123.388V78.5879H119.676V78.8955ZM145.824 76.0449V77.501C145.824 78.875 145.824 80.4541 145.455 82.4639H147.854V84.5557H140.594V87.2422H145.844V93.8867H143.219V89.293H132.494V87.2422H137.969V84.5557H130.771V82.4639H142.809C143.158 80.7207 143.209 79.3467 143.219 78.1162H132.863V76.0449H145.824ZM154.97 76.4756C157.923 76.4551 160.138 78.3828 160.138 81.0488C160.138 83.7354 157.923 85.6426 154.97 85.6426C152.017 85.6426 149.782 83.7354 149.782 81.0488C149.782 78.3828 152.017 76.4551 154.97 76.4756ZM154.97 78.7314C153.494 78.7314 152.366 79.5928 152.386 81.0488C152.366 82.5254 153.494 83.3662 154.97 83.3662C156.447 83.3662 157.575 82.5254 157.595 81.0488C157.575 79.5928 156.467 78.7314 154.97 78.7314ZM164.609 75.2246V93.9277H162.004V75.2246H164.609ZM149.002 87.9805C152.325 88.001 156.939 87.9395 160.938 87.3857L161.143 89.2725C157 90.0723 152.571 90.1133 149.31 90.1133L149.002 87.9805ZM188.993 89.5596V91.7129H171.91V89.5596H179.108V85.7451H173.714V76.5986H187.085V85.7451H181.712V89.5596H188.993ZM176.298 78.6904V83.6943H184.501V78.6904H176.298ZM207.122 84.4326V86.5244H190.059V84.4326H207.122ZM205.255 80.8232V82.915H192.13V75.9014H205.071V77.9932H194.735V80.8232H205.255ZM205.358 91.4463V93.5381H192.11V87.9805H194.694V91.4463H205.358ZM221.457 86.8525C225.538 86.8525 228.101 88.1445 228.122 90.3799C228.101 92.5742 225.538 93.8867 221.457 93.8867C217.417 93.8867 214.812 92.5742 214.812 90.3799C214.812 88.1445 217.417 86.8525 221.457 86.8525ZM221.457 88.8008C218.893 88.8008 217.417 89.334 217.417 90.3799C217.417 91.3848 218.893 91.8975 221.457 91.8975C224.02 91.8975 225.517 91.3848 225.517 90.3799C225.517 89.334 224.02 88.8008 221.457 88.8008ZM228.019 76.0654V77.583C228.019 79.0596 228.019 80.6592 227.486 82.5869L224.922 82.3408C225.333 80.6489 225.384 79.3877 225.415 78.1162H214.997V76.0654H228.019ZM230.029 83.5508V85.6631H213.089V83.5508H219.447V80.29H222.031V83.5508H230.029ZM246.927 75.2451V88.8828H244.323V84.4531H240.057C239.155 85.4067 237.853 85.9912 236.407 85.9912C233.577 85.9912 231.423 83.9404 231.444 81.1719C231.423 78.3623 233.577 76.332 236.407 76.3115C237.853 76.3218 239.145 76.896 240.057 77.8496H244.323V75.2451H246.927ZM247.378 91.4668V93.5586H234.541V87.5088H237.166V91.4668H247.378ZM236.407 78.6494C234.951 78.6494 233.905 79.5928 233.925 81.1719C233.905 82.7305 234.951 83.6738 236.407 83.6738C237.781 83.6738 238.847 82.7305 238.847 81.1719C238.847 79.5928 237.781 78.6494 236.407 78.6494ZM241.185 79.9414C241.277 80.3311 241.329 80.7412 241.329 81.1719C241.329 81.582 241.277 81.9819 241.185 82.3613H244.323V79.9414H241.185ZM269.917 75.2246V86.2988H267.312V81.8896H264.4V79.7773H267.312V75.2246H269.917ZM263.539 86.709C267.517 86.7295 269.958 88.042 269.978 90.3184C269.958 92.5742 267.517 93.9072 263.539 93.9072C259.56 93.9072 257.12 92.5742 257.12 90.3184C257.12 88.042 259.56 86.7295 263.539 86.709ZM263.539 88.7188C261.057 88.7188 259.724 89.2314 259.724 90.3184C259.724 91.3848 261.057 91.918 263.539 91.918C266.02 91.918 267.374 91.3848 267.374 90.3184C267.374 89.2314 266.02 88.7188 263.539 88.7188ZM264.954 76.3525V78.4443H261.242C261.303 80.6182 262.616 82.8125 265.528 83.7764L264.236 85.8271C262.175 85.1606 260.76 83.8071 259.95 82.1152C259.119 84.0225 257.632 85.5605 255.417 86.3193L254.064 84.248C257.13 83.2227 258.504 80.7822 258.576 78.4443H254.823V76.3525H264.954ZM289.419 89.5801V91.7129H272.336V89.5801H279.535V86.1348H274.141V76.4141H276.766V79.3057H284.908V76.4141H287.512V86.1348H282.139V89.5801H289.419ZM276.766 84.043H284.908V81.3975H276.766V84.043Z" fill="white"/>
<defs>
<clipPath id="clip0_3456_30608">
<rect width="174" height="55" fill="white" transform="translate(114)"/>
</clipPath>
</defs>
</svg>
