<svg width="21" height="30" viewBox="0 0 21 30" fill="none" xmlns="http://www.w3.org/2000/svg">
<g clip-path="url(#clip0_823_5998)">
<path fill-rule="evenodd" clip-rule="evenodd" d="M10.8218 11C9.82722 11 8.87339 11.3951 8.17013 12.0983C7.46687 12.8016 7.07178 13.7554 7.07178 14.75C7.07178 15.7446 7.46687 16.6984 8.17013 17.4017C8.87339 18.1049 9.82722 18.5 10.8218 18.5C11.8163 18.5 12.7702 18.1049 13.4734 17.4017C14.1767 16.6984 14.5718 15.7446 14.5718 14.75C14.5718 13.7554 14.1767 12.8016 13.4734 12.0983C12.7702 11.3951 11.8163 11 10.8218 11ZM8.57178 14.75C8.57178 14.1533 8.80883 13.581 9.23079 13.159C9.65274 12.7371 10.225 12.5 10.8218 12.5C11.4185 12.5 11.9908 12.7371 12.4128 13.159C12.8347 13.581 13.0718 14.1533 13.0718 14.75C13.0718 15.3467 12.8347 15.919 12.4128 16.341C11.9908 16.7629 11.4185 17 10.8218 17C10.225 17 9.65274 16.7629 9.23079 16.341C8.80883 15.919 8.57178 15.3467 8.57178 14.75Z" fill="#ABABAB"/>
<path fill-rule="evenodd" clip-rule="evenodd" d="M10.7966 4C10.3516 4 9.98055 4 9.67655 4.02C9.36576 4.03252 9.05923 4.09673 8.76955 4.21C8.4358 4.34809 8.13252 4.55057 7.87704 4.80589C7.62155 5.0612 7.41887 5.36434 7.28055 5.698C7.13555 6.048 7.09655 6.418 7.08055 6.82C7.07877 6.96698 7.03977 7.11112 6.9672 7.23895C6.89462 7.36678 6.79085 7.47414 6.66555 7.551C6.53638 7.62132 6.39148 7.65775 6.24441 7.65687C6.09733 7.656 5.95288 7.61785 5.82455 7.546C5.46855 7.358 5.12855 7.207 4.75255 7.157C4.3945 7.1099 4.03067 7.13379 3.68185 7.2273C3.33302 7.32081 3.00604 7.48212 2.71955 7.702C2.47695 7.89648 2.26843 8.13001 2.10255 8.393C1.93255 8.647 1.74655 8.968 1.52455 9.353L1.49955 9.397C1.27655 9.782 1.09155 10.103 0.957552 10.377C0.817552 10.663 0.707552 10.945 0.667552 11.257C0.572152 11.98 0.767832 12.7113 1.21155 13.29C1.44255 13.591 1.74355 13.81 2.08355 14.024C2.21019 14.0991 2.31569 14.2051 2.3902 14.332C2.46471 14.459 2.50577 14.6028 2.50955 14.75C2.50577 14.8972 2.46471 15.041 2.3902 15.168C2.31569 15.2949 2.21019 15.4009 2.08355 15.476C1.74355 15.69 1.44355 15.909 1.21155 16.21C0.991669 16.4965 0.830366 16.8235 0.736855 17.1723C0.643344 17.5211 0.619455 17.8849 0.666552 18.243C0.707552 18.555 0.816552 18.837 0.956552 19.123C1.09155 19.397 1.27655 19.718 1.49955 20.103L1.52455 20.147C1.74655 20.532 1.93255 20.853 2.10255 21.107C2.27955 21.37 2.46955 21.607 2.71955 21.797C3.00596 22.0171 3.33292 22.1785 3.68174 22.2722C4.03057 22.3659 4.39443 22.39 4.75255 22.343C5.12855 22.293 5.46855 22.143 5.82455 21.954C5.95276 21.8823 6.09703 21.8443 6.24391 21.8434C6.39079 21.8425 6.5355 21.8789 6.66455 21.949C6.79087 22.0249 6.89556 22.132 6.96858 22.26C7.0416 22.388 7.0805 22.5326 7.08155 22.68C7.09655 23.082 7.13555 23.452 7.28155 23.802C7.41964 24.1357 7.62213 24.439 7.87744 24.6945C8.13275 24.95 8.43589 25.1527 8.76955 25.291C9.05955 25.411 9.35955 25.458 9.67655 25.479C9.98055 25.5 10.3516 25.5 10.7966 25.5H10.8466C11.2916 25.5 11.6626 25.5 11.9666 25.48C12.2846 25.458 12.5836 25.411 12.8736 25.29C13.2073 25.1519 13.5106 24.9494 13.7661 24.6941C14.0216 24.4388 14.2242 24.1357 14.3626 23.802C14.5076 23.452 14.5466 23.082 14.5626 22.68C14.5642 22.5328 14.6031 22.3885 14.6757 22.2605C14.7482 22.1325 14.8521 22.025 14.9776 21.948C15.1068 21.8778 15.2518 21.8416 15.3988 21.8426C15.5459 21.8437 15.6903 21.882 15.8186 21.954C16.1746 22.142 16.5146 22.293 16.8906 22.342C17.6135 22.4374 18.3448 22.2417 18.9236 21.798C19.1736 21.606 19.3636 21.37 19.5406 21.107C19.7106 20.853 19.8966 20.532 20.1186 20.147L20.1436 20.103C20.3666 19.718 20.5516 19.397 20.6856 19.123C20.8256 18.837 20.9356 18.554 20.9756 18.243C21.071 17.52 20.8753 16.7887 20.4316 16.21C20.2006 15.909 19.8996 15.69 19.5596 15.476C19.4329 15.4009 19.3274 15.2949 19.2529 15.168C19.1784 15.041 19.1373 14.8972 19.1336 14.75C19.1336 14.472 19.2856 14.196 19.5596 14.024C19.8996 13.81 20.1996 13.591 20.4316 13.29C20.6514 13.0035 20.8127 12.6765 20.9062 12.3277C20.9998 11.9789 21.0237 11.6151 20.9766 11.257C20.9294 10.9496 20.8314 10.6522 20.6866 10.377C20.5158 10.0448 20.3347 9.71795 20.1436 9.397L20.1186 9.353C19.9359 9.02708 19.7431 8.70692 19.5406 8.393C19.3746 8.13036 19.1661 7.89718 18.9236 7.703C18.6371 7.48294 18.3102 7.32146 17.9614 7.22778C17.6125 7.13409 17.2487 7.11004 16.8906 7.157C16.5146 7.207 16.1746 7.357 15.8186 7.546C15.6903 7.61767 15.5461 7.65572 15.3992 7.6566C15.2523 7.65747 15.1076 7.62114 14.9786 7.551C14.8529 7.47438 14.7487 7.36712 14.6758 7.23928C14.6029 7.11143 14.5635 6.96717 14.5616 6.82C14.5466 6.418 14.5076 6.048 14.3616 5.698C14.2235 5.36425 14.021 5.06097 13.7657 4.80549C13.5104 4.55 13.2072 4.34731 12.8736 4.209C12.5836 4.089 12.2836 4.042 11.9666 4.021C11.6626 4 11.2916 4 10.8466 4H10.7966ZM9.34355 5.595C9.42055 5.563 9.53755 5.534 9.77855 5.517C10.0256 5.5 10.3456 5.5 10.8216 5.5C11.2976 5.5 11.6176 5.5 11.8646 5.517C12.1056 5.534 12.2226 5.563 12.2996 5.595C12.6066 5.722 12.8496 5.965 12.9766 6.272C13.0166 6.368 13.0496 6.519 13.0626 6.876C13.0926 7.668 13.5016 8.431 14.2276 8.85C14.9536 9.269 15.8186 9.242 16.5196 8.872C16.8356 8.705 16.9826 8.658 17.0866 8.645C17.4151 8.60158 17.7475 8.69043 18.0106 8.892C18.0766 8.943 18.1606 9.03 18.2956 9.23C18.4346 9.436 18.5946 9.713 18.8326 10.125C19.0706 10.537 19.2296 10.815 19.3386 11.037C19.4456 11.254 19.4786 11.37 19.4886 11.453C19.532 11.7816 19.4431 12.1139 19.2416 12.377C19.1776 12.46 19.0636 12.564 18.7616 12.754C18.0896 13.176 17.6336 13.912 17.6336 14.75C17.6336 15.588 18.0896 16.324 18.7616 16.746C19.0636 16.936 19.1776 17.04 19.2416 17.123C19.4436 17.386 19.5316 17.718 19.4886 18.047C19.4786 18.13 19.4446 18.247 19.3386 18.463C19.2296 18.686 19.0706 18.963 18.8326 19.375C18.5946 19.787 18.4336 20.064 18.2956 20.27C18.1606 20.47 18.0766 20.557 18.0106 20.608C17.7475 20.8096 17.4151 20.8984 17.0866 20.855C16.9826 20.842 16.8366 20.795 16.5196 20.628C15.8196 20.258 14.9536 20.23 14.2276 20.649C13.5016 21.068 13.0926 21.832 13.0626 22.624C13.0496 22.981 13.0166 23.132 12.9766 23.228C12.9137 23.3798 12.8216 23.5177 12.7054 23.6339C12.5893 23.7501 12.4513 23.8422 12.2996 23.905C12.2226 23.937 12.1056 23.966 11.8646 23.983C11.6176 24 11.2976 24 10.8216 24C10.3456 24 10.0256 24 9.77855 23.983C9.53755 23.966 9.42055 23.937 9.34355 23.905C9.19176 23.8422 9.05383 23.7501 8.93767 23.6339C8.8215 23.5177 8.72937 23.3798 8.66655 23.228C8.62655 23.132 8.59355 22.981 8.58055 22.624C8.55055 21.832 8.14155 21.069 7.41555 20.65C6.68955 20.231 5.82455 20.258 5.12355 20.628C4.80755 20.795 4.66055 20.842 4.55655 20.855C4.22799 20.8984 3.89563 20.8096 3.63255 20.608C3.56655 20.557 3.48255 20.47 3.34755 20.27C3.15943 19.9772 2.98035 19.6788 2.81055 19.375C2.57255 18.963 2.41355 18.685 2.30455 18.463C2.19755 18.246 2.16455 18.13 2.15455 18.047C2.11114 17.7184 2.19998 17.3861 2.40155 17.123C2.46555 17.04 2.57955 16.936 2.88155 16.746C3.55355 16.324 4.00955 15.588 4.00955 14.75C4.00955 13.912 3.55355 13.176 2.88155 12.754C2.57955 12.564 2.46555 12.46 2.40155 12.377C2.19998 12.1139 2.11114 11.7816 2.15455 11.453C2.16455 11.37 2.19855 11.253 2.30455 11.037C2.41355 10.814 2.57255 10.537 2.81055 10.125C3.04855 9.713 3.20955 9.436 3.34755 9.23C3.48255 9.03 3.56655 8.943 3.63255 8.892C3.89563 8.69043 4.22799 8.60158 4.55655 8.645C4.66055 8.658 4.80655 8.705 5.12355 8.872C5.82355 9.242 6.68955 9.27 7.41555 8.85C8.14155 8.431 8.55055 7.668 8.58055 6.876C8.59355 6.519 8.62655 6.368 8.66655 6.272C8.79355 5.965 9.03655 5.722 9.34355 5.595Z" fill="#ABABAB"/>
</g>
<defs>
<clipPath id="clip0_823_5998">
<rect width="20.357" height="29.5" fill="white" transform="translate(0.643066)"/>
</clipPath>
</defs>
</svg>
